<svg xmlns="http://www.w3.org/2000/svg" class="offlineIcon" viewBox="0 0 1000 1000"><path d="M386.6 561.2c-39 17.1-74.1 40.2-100.3 74.1-14.2 18.4-14.9 39.4-4.6 60.1 9.9 20 26.6 30.8 49.1 32.6 22.3 1.8 38.8-8.4 54-23.4 54.9-54.3 139.2-63.1 204-20.9.8.5 1.5 1 2.3 1.5L448.4 542.7c-22.4 3.9-42.4 10-61.8 18.5zM31.5 324.5c-8.7 8.2-15.8 19.9-19.1 31.3-7.8 26.8 4.4 52.7 28.4 66.4 22.8 13.1 51.8 9 73.2-11 36.4-34.1 75.6-62.7 117.4-85.5L143.7 238c-39.7 24.4-77.1 53.3-112.2 86.5zm468.6 420.4c-39.8-.3-72.6 32.5-72.3 72.1.4 39.7 32.4 71.1 72.2 70.9 39.8-.1 71.8-31.9 71.8-71.4.1-39.3-31.9-71.3-71.7-71.6zm212.1-216.5c18.7 14 35.7 30.2 54.6 43.9 18.1 13.2 47.3 11.1 66.1-2.7 18.8-13.8 27.8-39.4 22.9-60.9-4.7-20.3-19.2-32.7-33.6-45.5-91.6-81.4-198.6-123.5-331.3-125-10.4.9-27.4 1.8-45.4 3.7L568 464.4c51.3 9.9 100.8 31.4 144.2 64zM969.3 325c-131.9-123.4-289-184.3-488.4-186.5-20.2 2.1-59 4.4-97.1 10.6-36.4 5.9-71.5 14.5-105.3 25.8l97.2 97.2c16.4-3.6 33-6.5 50.1-8.6 91.6-11.7 181-2.6 267.9 28.7 71.6 25.8 134.7 65.2 190 117.1 14.8 13.9 31.8 22.5 52.3 20 24.6-3 42.3-16.2 50.4-39.8 8.5-25 1.8-46.8-17.1-64.5zM162.6 477.1c-35.1 33.8-22.9 86.5 22.9 101.2 22.6 7.2 42.3 0 60.3-14.7 22.8-18.6 45.1-38.2 70-53.7 21.5-13.3 44.2-24.1 67.5-32.3l-91.7-91.7c-46.9 22.8-89.8 53.4-129 91.2zm-32.7-351.9c17.5-17.5 45.9-17.6 63.5 0l527.4 527.4c17.5 17.5 17.5 46 0 63.5s-45.9 17.6-63.5 0L129.9 188.8c-17.6-17.6-17.6-46.1 0-63.6z"/></svg>